<svg xmlns="http://www.w3.org/2000/svg" version="1.1" xmlns:xlink="http://www.w3.org/1999/xlink" xmlns:svgjs="http://svgjs.dev/svgjs" viewBox="0 0 800 800"><defs><linearGradient gradientTransform="rotate(270)" x1="50%" y1="0%" x2="50%" y2="100%" id="sssquiggly-grad"><stop stop-color="#d9a299" stop-opacity="1" offset="0%"></stop><stop stop-color="#ccb5a2" stop-opacity="1" offset="100%"></stop></linearGradient></defs><g stroke-width="1" stroke="url(#sssquiggly-grad)" fill="none" stroke-linecap="round" transform="matrix(1,0,0,1,-5,-40.51476860046387)"><path d="M10,10C18.333333333333336,11.875,31.25,22.75,50,19C68.75,15.25,79.16666666666666,-8.208333333333334,100,-8C120.83333333333334,-7.791666666666667,129.16666666666666,18.958333333333332,150,20C170.83333333333334,21.041666666666668,179.16666666666666,-4.875,200,-3C220.83333333333334,-1.125,229.16666666666666,29.208333333333332,250,29C270.8333333333333,28.791666666666668,279.1666666666667,-3.7916666666666665,300,-4C320.8333333333333,-4.208333333333333,329.1666666666667,26.958333333333332,350,28C370.8333333333333,29.041666666666668,379.1666666666667,0.16666666666666674,400,1C420.8333333333333,1.8333333333333333,429.1666666666667,30.541666666666668,450,32C470.8333333333333,33.458333333333336,479.1666666666667,6.125,500,8C520.8333333333334,9.875,529.1666666666666,41.416666666666664,550,41C570.8333333333334,40.583333333333336,579.1666666666666,6.625,600,6C620.8333333333334,5.375,629.1666666666666,36.541666666666664,650,38C670.8333333333334,39.458333333333336,679.1666666666666,10.708333333333334,700,13C720.8333333333334,15.291666666666666,729.1666666666666,47.958333333333336,750,49C770.8333333333334,50.041666666666664,789.5833333333334,24.458333333333336,800,18"></path><path d="M10,10C18.333333333333336,11.875,31.25,22.75,50,19C68.75,15.25,79.16666666666666,-8.208333333333334,100,-8C120.83333333333334,-7.791666666666667,129.16666666666666,18.958333333333332,150,20C170.83333333333334,21.041666666666668,179.16666666666666,-4.875,200,-3C220.83333333333334,-1.125,229.16666666666666,29.208333333333332,250,29C270.8333333333333,28.791666666666668,279.1666666666667,-3.7916666666666665,300,-4C320.8333333333333,-4.208333333333333,329.1666666666667,26.958333333333332,350,28C370.8333333333333,29.041666666666668,379.1666666666667,0.16666666666666674,400,1C420.8333333333333,1.8333333333333333,429.1666666666667,30.541666666666668,450,32C470.8333333333333,33.458333333333336,479.1666666666667,6.125,500,8C520.8333333333334,9.875,529.1666666666666,41.416666666666664,550,41C570.8333333333334,40.583333333333336,579.1666666666666,6.625,600,6C620.8333333333334,5.375,629.1666666666666,36.541666666666664,650,38C670.8333333333334,39.458333333333336,679.1666666666666,10.708333333333334,700,13C720.8333333333334,15.291666666666666,729.1666666666666,47.958333333333336,750,49C770.8333333333334,50.041666666666664,789.5833333333334,24.458333333333336,800,18" transform="matrix(1,0,0,1,0,840)"></path><path d="M10,10C18.333333333333336,11.875,31.25,22.75,50,19C68.75,15.25,79.16666666666666,-8.208333333333334,100,-8C120.83333333333334,-7.791666666666667,129.16666666666666,18.958333333333332,150,20C170.83333333333334,21.041666666666668,179.16666666666666,-4.875,200,-3C220.83333333333334,-1.125,229.16666666666666,29.208333333333332,250,29C270.8333333333333,28.791666666666668,279.1666666666667,-3.7916666666666665,300,-4C320.8333333333333,-4.208333333333333,329.1666666666667,26.958333333333332,350,28C370.8333333333333,29.041666666666668,379.1666666666667,0.16666666666666674,400,1C420.8333333333333,1.8333333333333333,429.1666666666667,30.541666666666668,450,32C470.8333333333333,33.458333333333336,479.1666666666667,6.125,500,8C520.8333333333334,9.875,529.1666666666666,41.416666666666664,550,41C570.8333333333334,40.583333333333336,579.1666666666666,6.625,600,6C620.8333333333334,5.375,629.1666666666666,36.541666666666664,650,38C670.8333333333334,39.458333333333336,679.1666666666666,10.708333333333334,700,13C720.8333333333334,15.291666666666666,729.1666666666666,47.958333333333336,750,49C770.8333333333334,50.041666666666664,789.5833333333334,24.458333333333336,800,18" transform="matrix(1,0,0,1,0,820)"></path><path d="M10,10C18.333333333333336,11.875,31.25,22.75,50,19C68.75,15.25,79.16666666666666,-8.208333333333334,100,-8C120.83333333333334,-7.791666666666667,129.16666666666666,18.958333333333332,150,20C170.83333333333334,21.041666666666668,179.16666666666666,-4.875,200,-3C220.83333333333334,-1.125,229.16666666666666,29.208333333333332,250,29C270.8333333333333,28.791666666666668,279.1666666666667,-3.7916666666666665,300,-4C320.8333333333333,-4.208333333333333,329.1666666666667,26.958333333333332,350,28C370.8333333333333,29.041666666666668,379.1666666666667,0.16666666666666674,400,1C420.8333333333333,1.8333333333333333,429.1666666666667,30.541666666666668,450,32C470.8333333333333,33.458333333333336,479.1666666666667,6.125,500,8C520.8333333333334,9.875,529.1666666666666,41.416666666666664,550,41C570.8333333333334,40.583333333333336,579.1666666666666,6.625,600,6C620.8333333333334,5.375,629.1666666666666,36.541666666666664,650,38C670.8333333333334,39.458333333333336,679.1666666666666,10.708333333333334,700,13C720.8333333333334,15.291666666666666,729.1666666666666,47.958333333333336,750,49C770.8333333333334,50.041666666666664,789.5833333333334,24.458333333333336,800,18" transform="matrix(1,0,0,1,0,800)"></path><path d="M10,10C18.333333333333336,11.875,31.25,22.75,50,19C68.75,15.25,79.16666666666666,-8.208333333333334,100,-8C120.83333333333334,-7.791666666666667,129.16666666666666,18.958333333333332,150,20C170.83333333333334,21.041666666666668,179.16666666666666,-4.875,200,-3C220.83333333333334,-1.125,229.16666666666666,29.208333333333332,250,29C270.8333333333333,28.791666666666668,279.1666666666667,-3.7916666666666665,300,-4C320.8333333333333,-4.208333333333333,329.1666666666667,26.958333333333332,350,28C370.8333333333333,29.041666666666668,379.1666666666667,0.16666666666666674,400,1C420.8333333333333,1.8333333333333333,429.1666666666667,30.541666666666668,450,32C470.8333333333333,33.458333333333336,479.1666666666667,6.125,500,8C520.8333333333334,9.875,529.1666666666666,41.416666666666664,550,41C570.8333333333334,40.583333333333336,579.1666666666666,6.625,600,6C620.8333333333334,5.375,629.1666666666666,36.541666666666664,650,38C670.8333333333334,39.458333333333336,679.1666666666666,10.708333333333334,700,13C720.8333333333334,15.291666666666666,729.1666666666666,47.958333333333336,750,49C770.8333333333334,50.041666666666664,789.5833333333334,24.458333333333336,800,18" transform="matrix(1,0,0,1,0,780)"></path><path d="M10,10C18.333333333333336,11.875,31.25,22.75,50,19C68.75,15.25,79.16666666666666,-8.208333333333334,100,-8C120.83333333333334,-7.791666666666667,129.16666666666666,18.958333333333332,150,20C170.83333333333334,21.041666666666668,179.16666666666666,-4.875,200,-3C220.83333333333334,-1.125,229.16666666666666,29.208333333333332,250,29C270.8333333333333,28.791666666666668,279.1666666666667,-3.7916666666666665,300,-4C320.8333333333333,-4.208333333333333,329.1666666666667,26.958333333333332,350,28C370.8333333333333,29.041666666666668,379.1666666666667,0.16666666666666674,400,1C420.8333333333333,1.8333333333333333,429.1666666666667,30.541666666666668,450,32C470.8333333333333,33.458333333333336,479.1666666666667,6.125,500,8C520.8333333333334,9.875,529.1666666666666,41.416666666666664,550,41C570.8333333333334,40.583333333333336,579.1666666666666,6.625,600,6C620.8333333333334,5.375,629.1666666666666,36.541666666666664,650,38C670.8333333333334,39.458333333333336,679.1666666666666,10.708333333333334,700,13C720.8333333333334,15.291666666666666,729.1666666666666,47.958333333333336,750,49C770.8333333333334,50.041666666666664,789.5833333333334,24.458333333333336,800,18" transform="matrix(1,0,0,1,0,760)"></path><path d="M10,10C18.333333333333336,11.875,31.25,22.75,50,19C68.75,15.25,79.16666666666666,-8.208333333333334,100,-8C120.83333333333334,-7.791666666666667,129.16666666666666,18.958333333333332,150,20C170.83333333333334,21.041666666666668,179.16666666666666,-4.875,200,-3C220.83333333333334,-1.125,229.16666666666666,29.208333333333332,250,29C270.8333333333333,28.791666666666668,279.1666666666667,-3.7916666666666665,300,-4C320.8333333333333,-4.208333333333333,329.1666666666667,26.958333333333332,350,28C370.8333333333333,29.041666666666668,379.1666666666667,0.16666666666666674,400,1C420.8333333333333,1.8333333333333333,429.1666666666667,30.541666666666668,450,32C470.8333333333333,33.458333333333336,479.1666666666667,6.125,500,8C520.8333333333334,9.875,529.1666666666666,41.416666666666664,550,41C570.8333333333334,40.583333333333336,579.1666666666666,6.625,600,6C620.8333333333334,5.375,629.1666666666666,36.541666666666664,650,38C670.8333333333334,39.458333333333336,679.1666666666666,10.708333333333334,700,13C720.8333333333334,15.291666666666666,729.1666666666666,47.958333333333336,750,49C770.8333333333334,50.041666666666664,789.5833333333334,24.458333333333336,800,18" transform="matrix(1,0,0,1,0,740)"></path><path d="M10,10C18.333333333333336,11.875,31.25,22.75,50,19C68.75,15.25,79.16666666666666,-8.208333333333334,100,-8C120.83333333333334,-7.791666666666667,129.16666666666666,18.958333333333332,150,20C170.83333333333334,21.041666666666668,179.16666666666666,-4.875,200,-3C220.83333333333334,-1.125,229.16666666666666,29.208333333333332,250,29C270.8333333333333,28.791666666666668,279.1666666666667,-3.7916666666666665,300,-4C320.8333333333333,-4.208333333333333,329.1666666666667,26.958333333333332,350,28C370.8333333333333,29.041666666666668,379.1666666666667,0.16666666666666674,400,1C420.8333333333333,1.8333333333333333,429.1666666666667,30.541666666666668,450,32C470.8333333333333,33.458333333333336,479.1666666666667,6.125,500,8C520.8333333333334,9.875,529.1666666666666,41.416666666666664,550,41C570.8333333333334,40.583333333333336,579.1666666666666,6.625,600,6C620.8333333333334,5.375,629.1666666666666,36.541666666666664,650,38C670.8333333333334,39.458333333333336,679.1666666666666,10.708333333333334,700,13C720.8333333333334,15.291666666666666,729.1666666666666,47.958333333333336,750,49C770.8333333333334,50.041666666666664,789.5833333333334,24.458333333333336,800,18" transform="matrix(1,0,0,1,0,720)"></path><path d="M10,10C18.333333333333336,11.875,31.25,22.75,50,19C68.75,15.25,79.16666666666666,-8.208333333333334,100,-8C120.83333333333334,-7.791666666666667,129.16666666666666,18.958333333333332,150,20C170.83333333333334,21.041666666666668,179.16666666666666,-4.875,200,-3C220.83333333333334,-1.125,229.16666666666666,29.208333333333332,250,29C270.8333333333333,28.791666666666668,279.1666666666667,-3.7916666666666665,300,-4C320.8333333333333,-4.208333333333333,329.1666666666667,26.958333333333332,350,28C370.8333333333333,29.041666666666668,379.1666666666667,0.16666666666666674,400,1C420.8333333333333,1.8333333333333333,429.1666666666667,30.541666666666668,450,32C470.8333333333333,33.458333333333336,479.1666666666667,6.125,500,8C520.8333333333334,9.875,529.1666666666666,41.416666666666664,550,41C570.8333333333334,40.583333333333336,579.1666666666666,6.625,600,6C620.8333333333334,5.375,629.1666666666666,36.541666666666664,650,38C670.8333333333334,39.458333333333336,679.1666666666666,10.708333333333334,700,13C720.8333333333334,15.291666666666666,729.1666666666666,47.958333333333336,750,49C770.8333333333334,50.041666666666664,789.5833333333334,24.458333333333336,800,18" transform="matrix(1,0,0,1,0,700)"></path><path d="M10,10C18.333333333333336,11.875,31.25,22.75,50,19C68.75,15.25,79.16666666666666,-8.208333333333334,100,-8C120.83333333333334,-7.791666666666667,129.16666666666666,18.958333333333332,150,20C170.83333333333334,21.041666666666668,179.16666666666666,-4.875,200,-3C220.83333333333334,-1.125,229.16666666666666,29.208333333333332,250,29C270.8333333333333,28.791666666666668,279.1666666666667,-3.7916666666666665,300,-4C320.8333333333333,-4.208333333333333,329.1666666666667,26.958333333333332,350,28C370.8333333333333,29.041666666666668,379.1666666666667,0.16666666666666674,400,1C420.8333333333333,1.8333333333333333,429.1666666666667,30.541666666666668,450,32C470.8333333333333,33.458333333333336,479.1666666666667,6.125,500,8C520.8333333333334,9.875,529.1666666666666,41.416666666666664,550,41C570.8333333333334,40.583333333333336,579.1666666666666,6.625,600,6C620.8333333333334,5.375,629.1666666666666,36.541666666666664,650,38C670.8333333333334,39.458333333333336,679.1666666666666,10.708333333333334,700,13C720.8333333333334,15.291666666666666,729.1666666666666,47.958333333333336,750,49C770.8333333333334,50.041666666666664,789.5833333333334,24.458333333333336,800,18" transform="matrix(1,0,0,1,0,680)"></path><path d="M10,10C18.333333333333336,11.875,31.25,22.75,50,19C68.75,15.25,79.16666666666666,-8.208333333333334,100,-8C120.83333333333334,-7.791666666666667,129.16666666666666,18.958333333333332,150,20C170.83333333333334,21.041666666666668,179.16666666666666,-4.875,200,-3C220.83333333333334,-1.125,229.16666666666666,29.208333333333332,250,29C270.8333333333333,28.791666666666668,279.1666666666667,-3.7916666666666665,300,-4C320.8333333333333,-4.208333333333333,329.1666666666667,26.958333333333332,350,28C370.8333333333333,29.041666666666668,379.1666666666667,0.16666666666666674,400,1C420.8333333333333,1.8333333333333333,429.1666666666667,30.541666666666668,450,32C470.8333333333333,33.458333333333336,479.1666666666667,6.125,500,8C520.8333333333334,9.875,529.1666666666666,41.416666666666664,550,41C570.8333333333334,40.583333333333336,579.1666666666666,6.625,600,6C620.8333333333334,5.375,629.1666666666666,36.541666666666664,650,38C670.8333333333334,39.458333333333336,679.1666666666666,10.708333333333334,700,13C720.8333333333334,15.291666666666666,729.1666666666666,47.958333333333336,750,49C770.8333333333334,50.041666666666664,789.5833333333334,24.458333333333336,800,18" transform="matrix(1,0,0,1,0,660)"></path><path d="M10,10C18.333333333333336,11.875,31.25,22.75,50,19C68.75,15.25,79.16666666666666,-8.208333333333334,100,-8C120.83333333333334,-7.791666666666667,129.16666666666666,18.958333333333332,150,20C170.83333333333334,21.041666666666668,179.16666666666666,-4.875,200,-3C220.83333333333334,-1.125,229.16666666666666,29.208333333333332,250,29C270.8333333333333,28.791666666666668,279.1666666666667,-3.7916666666666665,300,-4C320.8333333333333,-4.208333333333333,329.1666666666667,26.958333333333332,350,28C370.8333333333333,29.041666666666668,379.1666666666667,0.16666666666666674,400,1C420.8333333333333,1.8333333333333333,429.1666666666667,30.541666666666668,450,32C470.8333333333333,33.458333333333336,479.1666666666667,6.125,500,8C520.8333333333334,9.875,529.1666666666666,41.416666666666664,550,41C570.8333333333334,40.583333333333336,579.1666666666666,6.625,600,6C620.8333333333334,5.375,629.1666666666666,36.541666666666664,650,38C670.8333333333334,39.458333333333336,679.1666666666666,10.708333333333334,700,13C720.8333333333334,15.291666666666666,729.1666666666666,47.958333333333336,750,49C770.8333333333334,50.041666666666664,789.5833333333334,24.458333333333336,800,18" transform="matrix(1,0,0,1,0,640)"></path><path d="M10,10C18.333333333333336,11.875,31.25,22.75,50,19C68.75,15.25,79.16666666666666,-8.208333333333334,100,-8C120.83333333333334,-7.791666666666667,129.16666666666666,18.958333333333332,150,20C170.83333333333334,21.041666666666668,179.16666666666666,-4.875,200,-3C220.83333333333334,-1.125,229.16666666666666,29.208333333333332,250,29C270.8333333333333,28.791666666666668,279.1666666666667,-3.7916666666666665,300,-4C320.8333333333333,-4.208333333333333,329.1666666666667,26.958333333333332,350,28C370.8333333333333,29.041666666666668,379.1666666666667,0.16666666666666674,400,1C420.8333333333333,1.8333333333333333,429.1666666666667,30.541666666666668,450,32C470.8333333333333,33.458333333333336,479.1666666666667,6.125,500,8C520.8333333333334,9.875,529.1666666666666,41.416666666666664,550,41C570.8333333333334,40.583333333333336,579.1666666666666,6.625,600,6C620.8333333333334,5.375,629.1666666666666,36.541666666666664,650,38C670.8333333333334,39.458333333333336,679.1666666666666,10.708333333333334,700,13C720.8333333333334,15.291666666666666,729.1666666666666,47.958333333333336,750,49C770.8333333333334,50.041666666666664,789.5833333333334,24.458333333333336,800,18" transform="matrix(1,0,0,1,0,620)"></path><path d="M10,10C18.333333333333336,11.875,31.25,22.75,50,19C68.75,15.25,79.16666666666666,-8.208333333333334,100,-8C120.83333333333334,-7.791666666666667,129.16666666666666,18.958333333333332,150,20C170.83333333333334,21.041666666666668,179.16666666666666,-4.875,200,-3C220.83333333333334,-1.125,229.16666666666666,29.208333333333332,250,29C270.8333333333333,28.791666666666668,279.1666666666667,-3.7916666666666665,300,-4C320.8333333333333,-4.208333333333333,329.1666666666667,26.958333333333332,350,28C370.8333333333333,29.041666666666668,379.1666666666667,0.16666666666666674,400,1C420.8333333333333,1.8333333333333333,429.1666666666667,30.541666666666668,450,32C470.8333333333333,33.458333333333336,479.1666666666667,6.125,500,8C520.8333333333334,9.875,529.1666666666666,41.416666666666664,550,41C570.8333333333334,40.583333333333336,579.1666666666666,6.625,600,6C620.8333333333334,5.375,629.1666666666666,36.541666666666664,650,38C670.8333333333334,39.458333333333336,679.1666666666666,10.708333333333334,700,13C720.8333333333334,15.291666666666666,729.1666666666666,47.958333333333336,750,49C770.8333333333334,50.041666666666664,789.5833333333334,24.458333333333336,800,18" transform="matrix(1,0,0,1,0,600)"></path><path d="M10,10C18.333333333333336,11.875,31.25,22.75,50,19C68.75,15.25,79.16666666666666,-8.208333333333334,100,-8C120.83333333333334,-7.791666666666667,129.16666666666666,18.958333333333332,150,20C170.83333333333334,21.041666666666668,179.16666666666666,-4.875,200,-3C220.83333333333334,-1.125,229.16666666666666,29.208333333333332,250,29C270.8333333333333,28.791666666666668,279.1666666666667,-3.7916666666666665,300,-4C320.8333333333333,-4.208333333333333,329.1666666666667,26.958333333333332,350,28C370.8333333333333,29.041666666666668,379.1666666666667,0.16666666666666674,400,1C420.8333333333333,1.8333333333333333,429.1666666666667,30.541666666666668,450,32C470.8333333333333,33.458333333333336,479.1666666666667,6.125,500,8C520.8333333333334,9.875,529.1666666666666,41.416666666666664,550,41C570.8333333333334,40.583333333333336,579.1666666666666,6.625,600,6C620.8333333333334,5.375,629.1666666666666,36.541666666666664,650,38C670.8333333333334,39.458333333333336,679.1666666666666,10.708333333333334,700,13C720.8333333333334,15.291666666666666,729.1666666666666,47.958333333333336,750,49C770.8333333333334,50.041666666666664,789.5833333333334,24.458333333333336,800,18" transform="matrix(1,0,0,1,0,580)"></path><path d="M10,10C18.333333333333336,11.875,31.25,22.75,50,19C68.75,15.25,79.16666666666666,-8.208333333333334,100,-8C120.83333333333334,-7.791666666666667,129.16666666666666,18.958333333333332,150,20C170.83333333333334,21.041666666666668,179.16666666666666,-4.875,200,-3C220.83333333333334,-1.125,229.16666666666666,29.208333333333332,250,29C270.8333333333333,28.791666666666668,279.1666666666667,-3.7916666666666665,300,-4C320.8333333333333,-4.208333333333333,329.1666666666667,26.958333333333332,350,28C370.8333333333333,29.041666666666668,379.1666666666667,0.16666666666666674,400,1C420.8333333333333,1.8333333333333333,429.1666666666667,30.541666666666668,450,32C470.8333333333333,33.458333333333336,479.1666666666667,6.125,500,8C520.8333333333334,9.875,529.1666666666666,41.416666666666664,550,41C570.8333333333334,40.583333333333336,579.1666666666666,6.625,600,6C620.8333333333334,5.375,629.1666666666666,36.541666666666664,650,38C670.8333333333334,39.458333333333336,679.1666666666666,10.708333333333334,700,13C720.8333333333334,15.291666666666666,729.1666666666666,47.958333333333336,750,49C770.8333333333334,50.041666666666664,789.5833333333334,24.458333333333336,800,18" transform="matrix(1,0,0,1,0,560)"></path><path d="M10,10C18.333333333333336,11.875,31.25,22.75,50,19C68.75,15.25,79.16666666666666,-8.208333333333334,100,-8C120.83333333333334,-7.791666666666667,129.16666666666666,18.958333333333332,150,20C170.83333333333334,21.041666666666668,179.16666666666666,-4.875,200,-3C220.83333333333334,-1.125,229.16666666666666,29.208333333333332,250,29C270.8333333333333,28.791666666666668,279.1666666666667,-3.7916666666666665,300,-4C320.8333333333333,-4.208333333333333,329.1666666666667,26.958333333333332,350,28C370.8333333333333,29.041666666666668,379.1666666666667,0.16666666666666674,400,1C420.8333333333333,1.8333333333333333,429.1666666666667,30.541666666666668,450,32C470.8333333333333,33.458333333333336,479.1666666666667,6.125,500,8C520.8333333333334,9.875,529.1666666666666,41.416666666666664,550,41C570.8333333333334,40.583333333333336,579.1666666666666,6.625,600,6C620.8333333333334,5.375,629.1666666666666,36.541666666666664,650,38C670.8333333333334,39.458333333333336,679.1666666666666,10.708333333333334,700,13C720.8333333333334,15.291666666666666,729.1666666666666,47.958333333333336,750,49C770.8333333333334,50.041666666666664,789.5833333333334,24.458333333333336,800,18" transform="matrix(1,0,0,1,0,540)"></path><path d="M10,10C18.333333333333336,11.875,31.25,22.75,50,19C68.75,15.25,79.16666666666666,-8.208333333333334,100,-8C120.83333333333334,-7.791666666666667,129.16666666666666,18.958333333333332,150,20C170.83333333333334,21.041666666666668,179.16666666666666,-4.875,200,-3C220.83333333333334,-1.125,229.16666666666666,29.208333333333332,250,29C270.8333333333333,28.791666666666668,279.1666666666667,-3.7916666666666665,300,-4C320.8333333333333,-4.208333333333333,329.1666666666667,26.958333333333332,350,28C370.8333333333333,29.041666666666668,379.1666666666667,0.16666666666666674,400,1C420.8333333333333,1.8333333333333333,429.1666666666667,30.541666666666668,450,32C470.8333333333333,33.458333333333336,479.1666666666667,6.125,500,8C520.8333333333334,9.875,529.1666666666666,41.416666666666664,550,41C570.8333333333334,40.583333333333336,579.1666666666666,6.625,600,6C620.8333333333334,5.375,629.1666666666666,36.541666666666664,650,38C670.8333333333334,39.458333333333336,679.1666666666666,10.708333333333334,700,13C720.8333333333334,15.291666666666666,729.1666666666666,47.958333333333336,750,49C770.8333333333334,50.041666666666664,789.5833333333334,24.458333333333336,800,18" transform="matrix(1,0,0,1,0,520)"></path><path d="M10,10C18.333333333333336,11.875,31.25,22.75,50,19C68.75,15.25,79.16666666666666,-8.208333333333334,100,-8C120.83333333333334,-7.791666666666667,129.16666666666666,18.958333333333332,150,20C170.83333333333334,21.041666666666668,179.16666666666666,-4.875,200,-3C220.83333333333334,-1.125,229.16666666666666,29.208333333333332,250,29C270.8333333333333,28.791666666666668,279.1666666666667,-3.7916666666666665,300,-4C320.8333333333333,-4.208333333333333,329.1666666666667,26.958333333333332,350,28C370.8333333333333,29.041666666666668,379.1666666666667,0.16666666666666674,400,1C420.8333333333333,1.8333333333333333,429.1666666666667,30.541666666666668,450,32C470.8333333333333,33.458333333333336,479.1666666666667,6.125,500,8C520.8333333333334,9.875,529.1666666666666,41.416666666666664,550,41C570.8333333333334,40.583333333333336,579.1666666666666,6.625,600,6C620.8333333333334,5.375,629.1666666666666,36.541666666666664,650,38C670.8333333333334,39.458333333333336,679.1666666666666,10.708333333333334,700,13C720.8333333333334,15.291666666666666,729.1666666666666,47.958333333333336,750,49C770.8333333333334,50.041666666666664,789.5833333333334,24.458333333333336,800,18" transform="matrix(1,0,0,1,0,500)"></path><path d="M10,10C18.333333333333336,11.875,31.25,22.75,50,19C68.75,15.25,79.16666666666666,-8.208333333333334,100,-8C120.83333333333334,-7.791666666666667,129.16666666666666,18.958333333333332,150,20C170.83333333333334,21.041666666666668,179.16666666666666,-4.875,200,-3C220.83333333333334,-1.125,229.16666666666666,29.208333333333332,250,29C270.8333333333333,28.791666666666668,279.1666666666667,-3.7916666666666665,300,-4C320.8333333333333,-4.208333333333333,329.1666666666667,26.958333333333332,350,28C370.8333333333333,29.041666666666668,379.1666666666667,0.16666666666666674,400,1C420.8333333333333,1.8333333333333333,429.1666666666667,30.541666666666668,450,32C470.8333333333333,33.458333333333336,479.1666666666667,6.125,500,8C520.8333333333334,9.875,529.1666666666666,41.416666666666664,550,41C570.8333333333334,40.583333333333336,579.1666666666666,6.625,600,6C620.8333333333334,5.375,629.1666666666666,36.541666666666664,650,38C670.8333333333334,39.458333333333336,679.1666666666666,10.708333333333334,700,13C720.8333333333334,15.291666666666666,729.1666666666666,47.958333333333336,750,49C770.8333333333334,50.041666666666664,789.5833333333334,24.458333333333336,800,18" transform="matrix(1,0,0,1,0,480)"></path><path d="M10,10C18.333333333333336,11.875,31.25,22.75,50,19C68.75,15.25,79.16666666666666,-8.208333333333334,100,-8C120.83333333333334,-7.791666666666667,129.16666666666666,18.958333333333332,150,20C170.83333333333334,21.041666666666668,179.16666666666666,-4.875,200,-3C220.83333333333334,-1.125,229.16666666666666,29.208333333333332,250,29C270.8333333333333,28.791666666666668,279.1666666666667,-3.7916666666666665,300,-4C320.8333333333333,-4.208333333333333,329.1666666666667,26.958333333333332,350,28C370.8333333333333,29.041666666666668,379.1666666666667,0.16666666666666674,400,1C420.8333333333333,1.8333333333333333,429.1666666666667,30.541666666666668,450,32C470.8333333333333,33.458333333333336,479.1666666666667,6.125,500,8C520.8333333333334,9.875,529.1666666666666,41.416666666666664,550,41C570.8333333333334,40.583333333333336,579.1666666666666,6.625,600,6C620.8333333333334,5.375,629.1666666666666,36.541666666666664,650,38C670.8333333333334,39.458333333333336,679.1666666666666,10.708333333333334,700,13C720.8333333333334,15.291666666666666,729.1666666666666,47.958333333333336,750,49C770.8333333333334,50.041666666666664,789.5833333333334,24.458333333333336,800,18" transform="matrix(1,0,0,1,0,460)"></path><path d="M10,10C18.333333333333336,11.875,31.25,22.75,50,19C68.75,15.25,79.16666666666666,-8.208333333333334,100,-8C120.83333333333334,-7.791666666666667,129.16666666666666,18.958333333333332,150,20C170.83333333333334,21.041666666666668,179.16666666666666,-4.875,200,-3C220.83333333333334,-1.125,229.16666666666666,29.208333333333332,250,29C270.8333333333333,28.791666666666668,279.1666666666667,-3.7916666666666665,300,-4C320.8333333333333,-4.208333333333333,329.1666666666667,26.958333333333332,350,28C370.8333333333333,29.041666666666668,379.1666666666667,0.16666666666666674,400,1C420.8333333333333,1.8333333333333333,429.1666666666667,30.541666666666668,450,32C470.8333333333333,33.458333333333336,479.1666666666667,6.125,500,8C520.8333333333334,9.875,529.1666666666666,41.416666666666664,550,41C570.8333333333334,40.583333333333336,579.1666666666666,6.625,600,6C620.8333333333334,5.375,629.1666666666666,36.541666666666664,650,38C670.8333333333334,39.458333333333336,679.1666666666666,10.708333333333334,700,13C720.8333333333334,15.291666666666666,729.1666666666666,47.958333333333336,750,49C770.8333333333334,50.041666666666664,789.5833333333334,24.458333333333336,800,18" transform="matrix(1,0,0,1,0,440)"></path><path d="M10,10C18.333333333333336,11.875,31.25,22.75,50,19C68.75,15.25,79.16666666666666,-8.208333333333334,100,-8C120.83333333333334,-7.791666666666667,129.16666666666666,18.958333333333332,150,20C170.83333333333334,21.041666666666668,179.16666666666666,-4.875,200,-3C220.83333333333334,-1.125,229.16666666666666,29.208333333333332,250,29C270.8333333333333,28.791666666666668,279.1666666666667,-3.7916666666666665,300,-4C320.8333333333333,-4.208333333333333,329.1666666666667,26.958333333333332,350,28C370.8333333333333,29.041666666666668,379.1666666666667,0.16666666666666674,400,1C420.8333333333333,1.8333333333333333,429.1666666666667,30.541666666666668,450,32C470.8333333333333,33.458333333333336,479.1666666666667,6.125,500,8C520.8333333333334,9.875,529.1666666666666,41.416666666666664,550,41C570.8333333333334,40.583333333333336,579.1666666666666,6.625,600,6C620.8333333333334,5.375,629.1666666666666,36.541666666666664,650,38C670.8333333333334,39.458333333333336,679.1666666666666,10.708333333333334,700,13C720.8333333333334,15.291666666666666,729.1666666666666,47.958333333333336,750,49C770.8333333333334,50.041666666666664,789.5833333333334,24.458333333333336,800,18" transform="matrix(1,0,0,1,0,420)"></path><path d="M10,10C18.333333333333336,11.875,31.25,22.75,50,19C68.75,15.25,79.16666666666666,-8.208333333333334,100,-8C120.83333333333334,-7.791666666666667,129.16666666666666,18.958333333333332,150,20C170.83333333333334,21.041666666666668,179.16666666666666,-4.875,200,-3C220.83333333333334,-1.125,229.16666666666666,29.208333333333332,250,29C270.8333333333333,28.791666666666668,279.1666666666667,-3.7916666666666665,300,-4C320.8333333333333,-4.208333333333333,329.1666666666667,26.958333333333332,350,28C370.8333333333333,29.041666666666668,379.1666666666667,0.16666666666666674,400,1C420.8333333333333,1.8333333333333333,429.1666666666667,30.541666666666668,450,32C470.8333333333333,33.458333333333336,479.1666666666667,6.125,500,8C520.8333333333334,9.875,529.1666666666666,41.416666666666664,550,41C570.8333333333334,40.583333333333336,579.1666666666666,6.625,600,6C620.8333333333334,5.375,629.1666666666666,36.541666666666664,650,38C670.8333333333334,39.458333333333336,679.1666666666666,10.708333333333334,700,13C720.8333333333334,15.291666666666666,729.1666666666666,47.958333333333336,750,49C770.8333333333334,50.041666666666664,789.5833333333334,24.458333333333336,800,18" transform="matrix(1,0,0,1,0,400)"></path><path d="M10,10C18.333333333333336,11.875,31.25,22.75,50,19C68.75,15.25,79.16666666666666,-8.208333333333334,100,-8C120.83333333333334,-7.791666666666667,129.16666666666666,18.958333333333332,150,20C170.83333333333334,21.041666666666668,179.16666666666666,-4.875,200,-3C220.83333333333334,-1.125,229.16666666666666,29.208333333333332,250,29C270.8333333333333,28.791666666666668,279.1666666666667,-3.7916666666666665,300,-4C320.8333333333333,-4.208333333333333,329.1666666666667,26.958333333333332,350,28C370.8333333333333,29.041666666666668,379.1666666666667,0.16666666666666674,400,1C420.8333333333333,1.8333333333333333,429.1666666666667,30.541666666666668,450,32C470.8333333333333,33.458333333333336,479.1666666666667,6.125,500,8C520.8333333333334,9.875,529.1666666666666,41.416666666666664,550,41C570.8333333333334,40.583333333333336,579.1666666666666,6.625,600,6C620.8333333333334,5.375,629.1666666666666,36.541666666666664,650,38C670.8333333333334,39.458333333333336,679.1666666666666,10.708333333333334,700,13C720.8333333333334,15.291666666666666,729.1666666666666,47.958333333333336,750,49C770.8333333333334,50.041666666666664,789.5833333333334,24.458333333333336,800,18" transform="matrix(1,0,0,1,0,380)"></path><path d="M10,10C18.333333333333336,11.875,31.25,22.75,50,19C68.75,15.25,79.16666666666666,-8.208333333333334,100,-8C120.83333333333334,-7.791666666666667,129.16666666666666,18.958333333333332,150,20C170.83333333333334,21.041666666666668,179.16666666666666,-4.875,200,-3C220.83333333333334,-1.125,229.16666666666666,29.208333333333332,250,29C270.8333333333333,28.791666666666668,279.1666666666667,-3.7916666666666665,300,-4C320.8333333333333,-4.208333333333333,329.1666666666667,26.958333333333332,350,28C370.8333333333333,29.041666666666668,379.1666666666667,0.16666666666666674,400,1C420.8333333333333,1.8333333333333333,429.1666666666667,30.541666666666668,450,32C470.8333333333333,33.458333333333336,479.1666666666667,6.125,500,8C520.8333333333334,9.875,529.1666666666666,41.416666666666664,550,41C570.8333333333334,40.583333333333336,579.1666666666666,6.625,600,6C620.8333333333334,5.375,629.1666666666666,36.541666666666664,650,38C670.8333333333334,39.458333333333336,679.1666666666666,10.708333333333334,700,13C720.8333333333334,15.291666666666666,729.1666666666666,47.958333333333336,750,49C770.8333333333334,50.041666666666664,789.5833333333334,24.458333333333336,800,18" transform="matrix(1,0,0,1,0,360)"></path><path d="M10,10C18.333333333333336,11.875,31.25,22.75,50,19C68.75,15.25,79.16666666666666,-8.208333333333334,100,-8C120.83333333333334,-7.791666666666667,129.16666666666666,18.958333333333332,150,20C170.83333333333334,21.041666666666668,179.16666666666666,-4.875,200,-3C220.83333333333334,-1.125,229.16666666666666,29.208333333333332,250,29C270.8333333333333,28.791666666666668,279.1666666666667,-3.7916666666666665,300,-4C320.8333333333333,-4.208333333333333,329.1666666666667,26.958333333333332,350,28C370.8333333333333,29.041666666666668,379.1666666666667,0.16666666666666674,400,1C420.8333333333333,1.8333333333333333,429.1666666666667,30.541666666666668,450,32C470.8333333333333,33.458333333333336,479.1666666666667,6.125,500,8C520.8333333333334,9.875,529.1666666666666,41.416666666666664,550,41C570.8333333333334,40.583333333333336,579.1666666666666,6.625,600,6C620.8333333333334,5.375,629.1666666666666,36.541666666666664,650,38C670.8333333333334,39.458333333333336,679.1666666666666,10.708333333333334,700,13C720.8333333333334,15.291666666666666,729.1666666666666,47.958333333333336,750,49C770.8333333333334,50.041666666666664,789.5833333333334,24.458333333333336,800,18" transform="matrix(1,0,0,1,0,340)"></path><path d="M10,10C18.333333333333336,11.875,31.25,22.75,50,19C68.75,15.25,79.16666666666666,-8.208333333333334,100,-8C120.83333333333334,-7.791666666666667,129.16666666666666,18.958333333333332,150,20C170.83333333333334,21.041666666666668,179.16666666666666,-4.875,200,-3C220.83333333333334,-1.125,229.16666666666666,29.208333333333332,250,29C270.8333333333333,28.791666666666668,279.1666666666667,-3.7916666666666665,300,-4C320.8333333333333,-4.208333333333333,329.1666666666667,26.958333333333332,350,28C370.8333333333333,29.041666666666668,379.1666666666667,0.16666666666666674,400,1C420.8333333333333,1.8333333333333333,429.1666666666667,30.541666666666668,450,32C470.8333333333333,33.458333333333336,479.1666666666667,6.125,500,8C520.8333333333334,9.875,529.1666666666666,41.416666666666664,550,41C570.8333333333334,40.583333333333336,579.1666666666666,6.625,600,6C620.8333333333334,5.375,629.1666666666666,36.541666666666664,650,38C670.8333333333334,39.458333333333336,679.1666666666666,10.708333333333334,700,13C720.8333333333334,15.291666666666666,729.1666666666666,47.958333333333336,750,49C770.8333333333334,50.041666666666664,789.5833333333334,24.458333333333336,800,18" transform="matrix(1,0,0,1,0,320)"></path><path d="M10,10C18.333333333333336,11.875,31.25,22.75,50,19C68.75,15.25,79.16666666666666,-8.208333333333334,100,-8C120.83333333333334,-7.791666666666667,129.16666666666666,18.958333333333332,150,20C170.83333333333334,21.041666666666668,179.16666666666666,-4.875,200,-3C220.83333333333334,-1.125,229.16666666666666,29.208333333333332,250,29C270.8333333333333,28.791666666666668,279.1666666666667,-3.7916666666666665,300,-4C320.8333333333333,-4.208333333333333,329.1666666666667,26.958333333333332,350,28C370.8333333333333,29.041666666666668,379.1666666666667,0.16666666666666674,400,1C420.8333333333333,1.8333333333333333,429.1666666666667,30.541666666666668,450,32C470.8333333333333,33.458333333333336,479.1666666666667,6.125,500,8C520.8333333333334,9.875,529.1666666666666,41.416666666666664,550,41C570.8333333333334,40.583333333333336,579.1666666666666,6.625,600,6C620.8333333333334,5.375,629.1666666666666,36.541666666666664,650,38C670.8333333333334,39.458333333333336,679.1666666666666,10.708333333333334,700,13C720.8333333333334,15.291666666666666,729.1666666666666,47.958333333333336,750,49C770.8333333333334,50.041666666666664,789.5833333333334,24.458333333333336,800,18" transform="matrix(1,0,0,1,0,300)"></path><path d="M10,10C18.333333333333336,11.875,31.25,22.75,50,19C68.75,15.25,79.16666666666666,-8.208333333333334,100,-8C120.83333333333334,-7.791666666666667,129.16666666666666,18.958333333333332,150,20C170.83333333333334,21.041666666666668,179.16666666666666,-4.875,200,-3C220.83333333333334,-1.125,229.16666666666666,29.208333333333332,250,29C270.8333333333333,28.791666666666668,279.1666666666667,-3.7916666666666665,300,-4C320.8333333333333,-4.208333333333333,329.1666666666667,26.958333333333332,350,28C370.8333333333333,29.041666666666668,379.1666666666667,0.16666666666666674,400,1C420.8333333333333,1.8333333333333333,429.1666666666667,30.541666666666668,450,32C470.8333333333333,33.458333333333336,479.1666666666667,6.125,500,8C520.8333333333334,9.875,529.1666666666666,41.416666666666664,550,41C570.8333333333334,40.583333333333336,579.1666666666666,6.625,600,6C620.8333333333334,5.375,629.1666666666666,36.541666666666664,650,38C670.8333333333334,39.458333333333336,679.1666666666666,10.708333333333334,700,13C720.8333333333334,15.291666666666666,729.1666666666666,47.958333333333336,750,49C770.8333333333334,50.041666666666664,789.5833333333334,24.458333333333336,800,18" transform="matrix(1,0,0,1,0,280)"></path><path d="M10,10C18.333333333333336,11.875,31.25,22.75,50,19C68.75,15.25,79.16666666666666,-8.208333333333334,100,-8C120.83333333333334,-7.791666666666667,129.16666666666666,18.958333333333332,150,20C170.83333333333334,21.041666666666668,179.16666666666666,-4.875,200,-3C220.83333333333334,-1.125,229.16666666666666,29.208333333333332,250,29C270.8333333333333,28.791666666666668,279.1666666666667,-3.7916666666666665,300,-4C320.8333333333333,-4.208333333333333,329.1666666666667,26.958333333333332,350,28C370.8333333333333,29.041666666666668,379.1666666666667,0.16666666666666674,400,1C420.8333333333333,1.8333333333333333,429.1666666666667,30.541666666666668,450,32C470.8333333333333,33.458333333333336,479.1666666666667,6.125,500,8C520.8333333333334,9.875,529.1666666666666,41.416666666666664,550,41C570.8333333333334,40.583333333333336,579.1666666666666,6.625,600,6C620.8333333333334,5.375,629.1666666666666,36.541666666666664,650,38C670.8333333333334,39.458333333333336,679.1666666666666,10.708333333333334,700,13C720.8333333333334,15.291666666666666,729.1666666666666,47.958333333333336,750,49C770.8333333333334,50.041666666666664,789.5833333333334,24.458333333333336,800,18" transform="matrix(1,0,0,1,0,260)"></path><path d="M10,10C18.333333333333336,11.875,31.25,22.75,50,19C68.75,15.25,79.16666666666666,-8.208333333333334,100,-8C120.83333333333334,-7.791666666666667,129.16666666666666,18.958333333333332,150,20C170.83333333333334,21.041666666666668,179.16666666666666,-4.875,200,-3C220.83333333333334,-1.125,229.16666666666666,29.208333333333332,250,29C270.8333333333333,28.791666666666668,279.1666666666667,-3.7916666666666665,300,-4C320.8333333333333,-4.208333333333333,329.1666666666667,26.958333333333332,350,28C370.8333333333333,29.041666666666668,379.1666666666667,0.16666666666666674,400,1C420.8333333333333,1.8333333333333333,429.1666666666667,30.541666666666668,450,32C470.8333333333333,33.458333333333336,479.1666666666667,6.125,500,8C520.8333333333334,9.875,529.1666666666666,41.416666666666664,550,41C570.8333333333334,40.583333333333336,579.1666666666666,6.625,600,6C620.8333333333334,5.375,629.1666666666666,36.541666666666664,650,38C670.8333333333334,39.458333333333336,679.1666666666666,10.708333333333334,700,13C720.8333333333334,15.291666666666666,729.1666666666666,47.958333333333336,750,49C770.8333333333334,50.041666666666664,789.5833333333334,24.458333333333336,800,18" transform="matrix(1,0,0,1,0,240)"></path><path d="M10,10C18.333333333333336,11.875,31.25,22.75,50,19C68.75,15.25,79.16666666666666,-8.208333333333334,100,-8C120.83333333333334,-7.791666666666667,129.16666666666666,18.958333333333332,150,20C170.83333333333334,21.041666666666668,179.16666666666666,-4.875,200,-3C220.83333333333334,-1.125,229.16666666666666,29.208333333333332,250,29C270.8333333333333,28.791666666666668,279.1666666666667,-3.7916666666666665,300,-4C320.8333333333333,-4.208333333333333,329.1666666666667,26.958333333333332,350,28C370.8333333333333,29.041666666666668,379.1666666666667,0.16666666666666674,400,1C420.8333333333333,1.8333333333333333,429.1666666666667,30.541666666666668,450,32C470.8333333333333,33.458333333333336,479.1666666666667,6.125,500,8C520.8333333333334,9.875,529.1666666666666,41.416666666666664,550,41C570.8333333333334,40.583333333333336,579.1666666666666,6.625,600,6C620.8333333333334,5.375,629.1666666666666,36.541666666666664,650,38C670.8333333333334,39.458333333333336,679.1666666666666,10.708333333333334,700,13C720.8333333333334,15.291666666666666,729.1666666666666,47.958333333333336,750,49C770.8333333333334,50.041666666666664,789.5833333333334,24.458333333333336,800,18" transform="matrix(1,0,0,1,0,220)"></path><path d="M10,10C18.333333333333336,11.875,31.25,22.75,50,19C68.75,15.25,79.16666666666666,-8.208333333333334,100,-8C120.83333333333334,-7.791666666666667,129.16666666666666,18.958333333333332,150,20C170.83333333333334,21.041666666666668,179.16666666666666,-4.875,200,-3C220.83333333333334,-1.125,229.16666666666666,29.208333333333332,250,29C270.8333333333333,28.791666666666668,279.1666666666667,-3.7916666666666665,300,-4C320.8333333333333,-4.208333333333333,329.1666666666667,26.958333333333332,350,28C370.8333333333333,29.041666666666668,379.1666666666667,0.16666666666666674,400,1C420.8333333333333,1.8333333333333333,429.1666666666667,30.541666666666668,450,32C470.8333333333333,33.458333333333336,479.1666666666667,6.125,500,8C520.8333333333334,9.875,529.1666666666666,41.416666666666664,550,41C570.8333333333334,40.583333333333336,579.1666666666666,6.625,600,6C620.8333333333334,5.375,629.1666666666666,36.541666666666664,650,38C670.8333333333334,39.458333333333336,679.1666666666666,10.708333333333334,700,13C720.8333333333334,15.291666666666666,729.1666666666666,47.958333333333336,750,49C770.8333333333334,50.041666666666664,789.5833333333334,24.458333333333336,800,18" transform="matrix(1,0,0,1,0,200)"></path><path d="M10,10C18.333333333333336,11.875,31.25,22.75,50,19C68.75,15.25,79.16666666666666,-8.208333333333334,100,-8C120.83333333333334,-7.791666666666667,129.16666666666666,18.958333333333332,150,20C170.83333333333334,21.041666666666668,179.16666666666666,-4.875,200,-3C220.83333333333334,-1.125,229.16666666666666,29.208333333333332,250,29C270.8333333333333,28.791666666666668,279.1666666666667,-3.7916666666666665,300,-4C320.8333333333333,-4.208333333333333,329.1666666666667,26.958333333333332,350,28C370.8333333333333,29.041666666666668,379.1666666666667,0.16666666666666674,400,1C420.8333333333333,1.8333333333333333,429.1666666666667,30.541666666666668,450,32C470.8333333333333,33.458333333333336,479.1666666666667,6.125,500,8C520.8333333333334,9.875,529.1666666666666,41.416666666666664,550,41C570.8333333333334,40.583333333333336,579.1666666666666,6.625,600,6C620.8333333333334,5.375,629.1666666666666,36.541666666666664,650,38C670.8333333333334,39.458333333333336,679.1666666666666,10.708333333333334,700,13C720.8333333333334,15.291666666666666,729.1666666666666,47.958333333333336,750,49C770.8333333333334,50.041666666666664,789.5833333333334,24.458333333333336,800,18" transform="matrix(1,0,0,1,0,180)"></path><path d="M10,10C18.333333333333336,11.875,31.25,22.75,50,19C68.75,15.25,79.16666666666666,-8.208333333333334,100,-8C120.83333333333334,-7.791666666666667,129.16666666666666,18.958333333333332,150,20C170.83333333333334,21.041666666666668,179.16666666666666,-4.875,200,-3C220.83333333333334,-1.125,229.16666666666666,29.208333333333332,250,29C270.8333333333333,28.791666666666668,279.1666666666667,-3.7916666666666665,300,-4C320.8333333333333,-4.208333333333333,329.1666666666667,26.958333333333332,350,28C370.8333333333333,29.041666666666668,379.1666666666667,0.16666666666666674,400,1C420.8333333333333,1.8333333333333333,429.1666666666667,30.541666666666668,450,32C470.8333333333333,33.458333333333336,479.1666666666667,6.125,500,8C520.8333333333334,9.875,529.1666666666666,41.416666666666664,550,41C570.8333333333334,40.583333333333336,579.1666666666666,6.625,600,6C620.8333333333334,5.375,629.1666666666666,36.541666666666664,650,38C670.8333333333334,39.458333333333336,679.1666666666666,10.708333333333334,700,13C720.8333333333334,15.291666666666666,729.1666666666666,47.958333333333336,750,49C770.8333333333334,50.041666666666664,789.5833333333334,24.458333333333336,800,18" transform="matrix(1,0,0,1,0,160)"></path><path d="M10,10C18.333333333333336,11.875,31.25,22.75,50,19C68.75,15.25,79.16666666666666,-8.208333333333334,100,-8C120.83333333333334,-7.791666666666667,129.16666666666666,18.958333333333332,150,20C170.83333333333334,21.041666666666668,179.16666666666666,-4.875,200,-3C220.83333333333334,-1.125,229.16666666666666,29.208333333333332,250,29C270.8333333333333,28.791666666666668,279.1666666666667,-3.7916666666666665,300,-4C320.8333333333333,-4.208333333333333,329.1666666666667,26.958333333333332,350,28C370.8333333333333,29.041666666666668,379.1666666666667,0.16666666666666674,400,1C420.8333333333333,1.8333333333333333,429.1666666666667,30.541666666666668,450,32C470.8333333333333,33.458333333333336,479.1666666666667,6.125,500,8C520.8333333333334,9.875,529.1666666666666,41.416666666666664,550,41C570.8333333333334,40.583333333333336,579.1666666666666,6.625,600,6C620.8333333333334,5.375,629.1666666666666,36.541666666666664,650,38C670.8333333333334,39.458333333333336,679.1666666666666,10.708333333333334,700,13C720.8333333333334,15.291666666666666,729.1666666666666,47.958333333333336,750,49C770.8333333333334,50.041666666666664,789.5833333333334,24.458333333333336,800,18" transform="matrix(1,0,0,1,0,140)"></path><path d="M10,10C18.333333333333336,11.875,31.25,22.75,50,19C68.75,15.25,79.16666666666666,-8.208333333333334,100,-8C120.83333333333334,-7.791666666666667,129.16666666666666,18.958333333333332,150,20C170.83333333333334,21.041666666666668,179.16666666666666,-4.875,200,-3C220.83333333333334,-1.125,229.16666666666666,29.208333333333332,250,29C270.8333333333333,28.791666666666668,279.1666666666667,-3.7916666666666665,300,-4C320.8333333333333,-4.208333333333333,329.1666666666667,26.958333333333332,350,28C370.8333333333333,29.041666666666668,379.1666666666667,0.16666666666666674,400,1C420.8333333333333,1.8333333333333333,429.1666666666667,30.541666666666668,450,32C470.8333333333333,33.458333333333336,479.1666666666667,6.125,500,8C520.8333333333334,9.875,529.1666666666666,41.416666666666664,550,41C570.8333333333334,40.583333333333336,579.1666666666666,6.625,600,6C620.8333333333334,5.375,629.1666666666666,36.541666666666664,650,38C670.8333333333334,39.458333333333336,679.1666666666666,10.708333333333334,700,13C720.8333333333334,15.291666666666666,729.1666666666666,47.958333333333336,750,49C770.8333333333334,50.041666666666664,789.5833333333334,24.458333333333336,800,18" transform="matrix(1,0,0,1,0,120)"></path><path d="M10,10C18.333333333333336,11.875,31.25,22.75,50,19C68.75,15.25,79.16666666666666,-8.208333333333334,100,-8C120.83333333333334,-7.791666666666667,129.16666666666666,18.958333333333332,150,20C170.83333333333334,21.041666666666668,179.16666666666666,-4.875,200,-3C220.83333333333334,-1.125,229.16666666666666,29.208333333333332,250,29C270.8333333333333,28.791666666666668,279.1666666666667,-3.7916666666666665,300,-4C320.8333333333333,-4.208333333333333,329.1666666666667,26.958333333333332,350,28C370.8333333333333,29.041666666666668,379.1666666666667,0.16666666666666674,400,1C420.8333333333333,1.8333333333333333,429.1666666666667,30.541666666666668,450,32C470.8333333333333,33.458333333333336,479.1666666666667,6.125,500,8C520.8333333333334,9.875,529.1666666666666,41.416666666666664,550,41C570.8333333333334,40.583333333333336,579.1666666666666,6.625,600,6C620.8333333333334,5.375,629.1666666666666,36.541666666666664,650,38C670.8333333333334,39.458333333333336,679.1666666666666,10.708333333333334,700,13C720.8333333333334,15.291666666666666,729.1666666666666,47.958333333333336,750,49C770.8333333333334,50.041666666666664,789.5833333333334,24.458333333333336,800,18" transform="matrix(1,0,0,1,0,100)"></path><path d="M10,10C18.333333333333336,11.875,31.25,22.75,50,19C68.75,15.25,79.16666666666666,-8.208333333333334,100,-8C120.83333333333334,-7.791666666666667,129.16666666666666,18.958333333333332,150,20C170.83333333333334,21.041666666666668,179.16666666666666,-4.875,200,-3C220.83333333333334,-1.125,229.16666666666666,29.208333333333332,250,29C270.8333333333333,28.791666666666668,279.1666666666667,-3.7916666666666665,300,-4C320.8333333333333,-4.208333333333333,329.1666666666667,26.958333333333332,350,28C370.8333333333333,29.041666666666668,379.1666666666667,0.16666666666666674,400,1C420.8333333333333,1.8333333333333333,429.1666666666667,30.541666666666668,450,32C470.8333333333333,33.458333333333336,479.1666666666667,6.125,500,8C520.8333333333334,9.875,529.1666666666666,41.416666666666664,550,41C570.8333333333334,40.583333333333336,579.1666666666666,6.625,600,6C620.8333333333334,5.375,629.1666666666666,36.541666666666664,650,38C670.8333333333334,39.458333333333336,679.1666666666666,10.708333333333334,700,13C720.8333333333334,15.291666666666666,729.1666666666666,47.958333333333336,750,49C770.8333333333334,50.041666666666664,789.5833333333334,24.458333333333336,800,18" transform="matrix(1,0,0,1,0,80)"></path><path d="M10,10C18.333333333333336,11.875,31.25,22.75,50,19C68.75,15.25,79.16666666666666,-8.208333333333334,100,-8C120.83333333333334,-7.791666666666667,129.16666666666666,18.958333333333332,150,20C170.83333333333334,21.041666666666668,179.16666666666666,-4.875,200,-3C220.83333333333334,-1.125,229.16666666666666,29.208333333333332,250,29C270.8333333333333,28.791666666666668,279.1666666666667,-3.7916666666666665,300,-4C320.8333333333333,-4.208333333333333,329.1666666666667,26.958333333333332,350,28C370.8333333333333,29.041666666666668,379.1666666666667,0.16666666666666674,400,1C420.8333333333333,1.8333333333333333,429.1666666666667,30.541666666666668,450,32C470.8333333333333,33.458333333333336,479.1666666666667,6.125,500,8C520.8333333333334,9.875,529.1666666666666,41.416666666666664,550,41C570.8333333333334,40.583333333333336,579.1666666666666,6.625,600,6C620.8333333333334,5.375,629.1666666666666,36.541666666666664,650,38C670.8333333333334,39.458333333333336,679.1666666666666,10.708333333333334,700,13C720.8333333333334,15.291666666666666,729.1666666666666,47.958333333333336,750,49C770.8333333333334,50.041666666666664,789.5833333333334,24.458333333333336,800,18" transform="matrix(1,0,0,1,0,60)"></path><path d="M10,10C18.333333333333336,11.875,31.25,22.75,50,19C68.75,15.25,79.16666666666666,-8.208333333333334,100,-8C120.83333333333334,-7.791666666666667,129.16666666666666,18.958333333333332,150,20C170.83333333333334,21.041666666666668,179.16666666666666,-4.875,200,-3C220.83333333333334,-1.125,229.16666666666666,29.208333333333332,250,29C270.8333333333333,28.791666666666668,279.1666666666667,-3.7916666666666665,300,-4C320.8333333333333,-4.208333333333333,329.1666666666667,26.958333333333332,350,28C370.8333333333333,29.041666666666668,379.1666666666667,0.16666666666666674,400,1C420.8333333333333,1.8333333333333333,429.1666666666667,30.541666666666668,450,32C470.8333333333333,33.458333333333336,479.1666666666667,6.125,500,8C520.8333333333334,9.875,529.1666666666666,41.416666666666664,550,41C570.8333333333334,40.583333333333336,579.1666666666666,6.625,600,6C620.8333333333334,5.375,629.1666666666666,36.541666666666664,650,38C670.8333333333334,39.458333333333336,679.1666666666666,10.708333333333334,700,13C720.8333333333334,15.291666666666666,729.1666666666666,47.958333333333336,750,49C770.8333333333334,50.041666666666664,789.5833333333334,24.458333333333336,800,18" transform="matrix(1,0,0,1,0,40)"></path><path d="M10,10C18.333333333333336,11.875,31.25,22.75,50,19C68.75,15.25,79.16666666666666,-8.208333333333334,100,-8C120.83333333333334,-7.791666666666667,129.16666666666666,18.958333333333332,150,20C170.83333333333334,21.041666666666668,179.16666666666666,-4.875,200,-3C220.83333333333334,-1.125,229.16666666666666,29.208333333333332,250,29C270.8333333333333,28.791666666666668,279.1666666666667,-3.7916666666666665,300,-4C320.8333333333333,-4.208333333333333,329.1666666666667,26.958333333333332,350,28C370.8333333333333,29.041666666666668,379.1666666666667,0.16666666666666674,400,1C420.8333333333333,1.8333333333333333,429.1666666666667,30.541666666666668,450,32C470.8333333333333,33.458333333333336,479.1666666666667,6.125,500,8C520.8333333333334,9.875,529.1666666666666,41.416666666666664,550,41C570.8333333333334,40.583333333333336,579.1666666666666,6.625,600,6C620.8333333333334,5.375,629.1666666666666,36.541666666666664,650,38C670.8333333333334,39.458333333333336,679.1666666666666,10.708333333333334,700,13C720.8333333333334,15.291666666666666,729.1666666666666,47.958333333333336,750,49C770.8333333333334,50.041666666666664,789.5833333333334,24.458333333333336,800,18" transform="matrix(1,0,0,1,0,20)"></path></g></svg>